Coordinates
version=1
nRows=42
nColumns=38
inDegrees=no

Units are S.I. units (second, meters, Newtons, ...)
If the header above contains a line with 'inDegrees', this indicates whether rotational values are in degrees (yes) or radians (no).

endheader
time	pelvis_tilt	pelvis_list	pelvis_rotation	pelvis_tx	pelvis_ty	pelvis_tz	hip_flexion_r	hip_adduction_r	hip_rotation_r	knee_angle_r	ankle_angle_r	subtalar_angle_r	mtp_angle_r	hip_flexion_l	hip_adduction_l	hip_rotation_l	knee_angle_l	ankle_angle_l	subtalar_angle_l	mtp_angle_l	lumbar_extension	lumbar_bending	lumbar_rotation	arm_flex_r	arm_add_r	arm_rot_r	elbow_flex_r	pro_sup_r	wrist_flex_r	wrist_dev_r	arm_flex_l	arm_add_l	arm_rot_l	elbow_flex_l	pro_sup_l	wrist_flex_l	wrist_dev_l
80	3.09315	0.864508	-1.52855	0.665853	0.176038	0.538273	0.629948	-0.55391	-0.00669014	2.0944	0.523599	0	0	0.706176	-0.564267	0.0580076	2.0944	0.469108	0	0	-1.5708	0.00977221	0.0297554	1.24676	-0.534508	0.149951	1.22352	1.26281	0	0	1.14086	-0.399014	0.0324516	1.39225	0.895414	0	0
80.01	3.09223	0.863462	-1.5253	0.665575	0.175226	0.53779	0.628949	-0.554444	-0.0085922	2.0944	0.523599	0	0	0.70763	-0.560239	0.0610068	2.0944	0.470748	0	0	-1.57079	0.0124332	0.0295229	1.24984	-0.532268	0.152425	1.21695	1.27218	0	0	1.14382	-0.400585	0.0405583	1.38959	0.857395	0	0
80.02	3.0904	0.861969	-1.52124	0.665348	0.174243	0.537737	0.627039	-0.553741	-0.0117263	2.0944	0.523599	0	0	0.708851	-0.556394	0.0647606	2.0944	0.472154	0	0	-1.5708	0.0151485	0.0301363	1.25239	-0.53049	0.153405	1.21136	1.28217	0	0	1.14743	-0.402504	0.0497543	1.38783	0.822141	0	0
80.03	3.09038	0.858373	-1.51799	0.6639	0.170065	0.546997	0.623026	-0.554291	-0.0137153	2.0944	0.523599	0	0	0.708724	-0.551405	0.0692548	2.0944	0.472853	0	0	-1.56968	0.0177727	0.0311527	1.25303	-0.530412	0.152404	1.20798	1.29277	0	0	1.15232	-0.404568	0.0623353	1.38465	0.78957	0	0
80.04	3.10419	0.854062	-1.52259	0.605259	0.18251	0.547489	0.620959	-0.549992	-0.0189445	2.0944	0.523155	0	0	0.714037	-0.546556	0.0779331	2.0944	0.472695	0	0	-1.5699	0.0143616	0.0394128	1.25057	-0.533397	0.150424	1.20748	1.30367	0	0	1.17123	-0.426865	0.134392	1.35295	0.760389	0	0
80.05	3.08808	0.88746	-1.50987	0.664495	0.174394	0.534877	0.64155	-0.544593	-0.0266515	2.0944	0.523599	0	0	0.753092	-0.539421	0.087271	2.0944	0.480435	0	0	-1.53724	0.0193082	0.0307985	1.23686	-0.526654	0.149928	1.20298	1.3155	0	0	1.1535	-0.410123	0.0759771	1.37129	0.812096	0	0
80.06	3.09222	0.85509	-1.51035	0.647572	0.173574	0.542332	0.617361	-0.546827	-0.0213034	2.0944	0.522446	0	0	0.714521	-0.534627	0.0830251	2.0944	0.474244	0	0	-1.56745	0.0224395	0.0367896	1.24639	-0.530961	0.149333	1.20259	1.32488	0	0	1.17745	-0.431711	0.146397	1.34164	0.784168	0	0
80.07	3.09564	0.851357	-1.51009	0.643317	0.17389	0.543467	0.612086	-0.546121	-0.0215801	2.0944	0.521434	0	0	0.711403	-0.52783	0.0853846	2.0944	0.473964	0	0	-1.56963	0.023401	0.0289649	1.24625	-0.523575	0.150661	1.20118	1.33563	0	0	1.16771	-0.422856	0.083728	1.36111	0.848431	0	0
80.08	3.07414	0.861774	-1.49404	0.729064	0.163785	0.530929	0.617285	-0.546682	-0.020247	2.0944	0.521079	0	0	0.71541	-0.516695	0.0851039	2.0944	0.473813	0	0	-1.56406	0.0345362	0.0239354	1.23999	-0.524502	0.149848	1.20271	1.34546	0	0	1.16941	-0.431415	0.101264	1.36307	0.816256	0	0
80.09	3.06798	0.869704	-1.4869	0.749081	0.152983	0.526214	0.621711	-0.543963	-0.0215433	2.0944	0.519726	0	0	0.722572	-0.508298	0.0887961	2.0944	0.47338	0	0	-1.55624	0.0391293	0.0229673	1.23256	-0.525942	0.148068	1.20643	1.35236	0	0	1.17107	-0.440022	0.119349	1.36421	0.784858	0	0
80.1	3.09496	0.868657	-1.50075	0.650663	0.173424	0.543879	0.628278	-0.53626	-0.0241767	2.0944	0.517001	0	0	0.735259	-0.503223	0.0971271	2.0944	0.473272	0	0	-1.54598	0.0301842	0.0272162	1.22492	-0.527779	0.146323	1.21295	1.35632	0	0	1.17384	-0.448634	0.13765	1.36451	0.752891	0	0
80.11	3.07405	0.885707	-1.48575	0.729594	0.163425	0.532388	0.641674	-0.535179	-0.0214954	2.0944	0.515551	0	0	0.746414	-0.490907	0.0962011	2.0944	0.47277	0	0	-1.53454	0.0399793	0.0265976	1.21394	-0.534296	0.142782	1.21853	1.35685	0	0	1.17639	-0.451634	0.158338	1.36444	0.722892	0	0
80.12	3.08328	0.90016	-1.4886	0.681886	0.167944	0.539416	0.659303	-0.525088	-0.0245433	2.0944	0.516395	0	0	0.769563	-0.484729	0.103943	2.0944	0.47264	0	0	-1.51443	0.0364317	0.0346651	1.20084	-0.541108	0.140344	1.22467	1.35604	0	0	1.19098	-0.467935	0.225558	1.33347	0.692359	0	0
80.13	3.09184	0.916753	-1.49186	0.667088	0.171956	0.541572	0.660973	-0.517021	-0.0349207	2.0944	0.523599	0	0	0.791547	-0.479219	0.11102	2.0944	0.468074	0	0	-1.49046	0.0315541	0.032465	1.17946	-0.540517	0.134567	1.22833	1.35443	0	0	1.1882	-0.471643	0.233047	1.33217	0.705637	0	0
80.14	3.08625	0.948838	-1.48628	0.665408	0.171913	0.543001	0.714204	-0.511497	-0.0203659	2.0944	0.515923	0	0	0.82798	-0.4649	0.111566	2.0944	0.461939	0	0	-1.46461	0.0357202	0.03138	1.17658	-0.541514	0.138309	1.23147	1.35131	0	0	1.17119	-0.460932	0.186771	1.36173	0.723736	0	0
80.15	3.08062	0.989041	-1.49831	0.666282	0.170909	0.542545	0.777624	-0.507047	-0.0162683	2.0944	0.51	0	0	0.869366	-0.46539	0.103332	2.0944	0.452733	0	0	-1.42756	0.0221095	0.0381519	1.17243	-0.549618	0.140955	1.23587	1.34671	0	0	1.18528	-0.47213	0.244741	1.33202	0.69105	0	0
80.16	3.0746	0.97053	-1.47646	0.708236	0.168236	0.540324	0.727506	-0.503639	-0.0202867	2.0944	0.514916	0	0	0.841809	-0.449504	0.110186	2.0944	0.445396	0	0	-1.44378	0.042204	0.0332068	1.1505	-0.548637	0.1284	1.243	1.34016	0	0	1.18036	-0.471845	0.248875	1.331	0.697813	0	0
80.17	3.07941	1.02925	-1.49504	0.666236	0.172339	0.54614	0.817018	-0.495379	-0.0138066	2.0944	0.508642	0	0	0.910107	-0.450477	0.105043	2.0944	0.438381	0	0	-1.38514	0.0235947	0.0386628	1.14289	-0.551215	0.131997	1.2478	1.33237	0	0	1.17209	-0.471369	0.248264	1.3325	0.702861	0	0
80.18	3.06925	1.04308	-1.48824	0.708535	0.172708	0.543158	0.826488	-0.494316	-0.0115095	2.0944	0.506271	0	0	0.91694	-0.44208	0.100195	2.0944	0.426875	0	0	-1.37319	0.0290836	0.0353665	1.13021	-0.551306	0.12615	1.25224	1.32229	0	0	1.16422	-0.468891	0.246065	1.33469	0.70704	0	0
80.19	3.06449	1.14436	-1.48216	0.666241	0.177229	0.542723	0.950637	-0.476844	0.00387102	2.0944	0.512084	0	0	1.03958	-0.429712	0.115357	2.0944	0.437753	0	0	-1.26	0.0247141	0.0383309	1.08568	-0.547757	0.126043	1.2527	1.31587	0	0	1.12276	-0.469096	0.249371	1.33975	0.709891	0	0
80.2	3.06533	1.15782	-1.48445	0.666259	0.17775	0.545903	0.962255	-0.471809	0.00456448	2.0944	0.508069	0	0	1.04841	-0.427252	0.110769	2.0944	0.429068	0	0	-1.24465	0.0232162	0.0371516	1.07491	-0.545999	0.124166	1.25376	1.30659	0	0	1.11215	-0.470133	0.247446	1.34454	0.709609	0	0
80.21	3.06482	1.17191	-1.48648	0.666418	0.178318	0.549148	0.974776	-0.465631	0.00519451	2.0944	0.501396	0	0	1.0576	-0.426189	0.106362	2.0944	0.420927	0	0	-1.22826	0.0210185	0.0366415	1.06357	-0.544584	0.122769	1.25496	1.29741	0	0	1.10112	-0.472061	0.247164	1.34967	0.707424	0	0
80.22	3.06768	1.187	-1.49254	0.666598	0.178941	0.552422	0.989123	-0.459844	0.00797468	2.0944	0.495329	0	0	1.06629	-0.424959	0.0996221	2.0944	0.413346	0	0	-1.21037	0.017574	0.0354793	1.05064	-0.543414	0.119963	1.25691	1.28741	0	0	1.09004	-0.475258	0.248534	1.35431	0.707089	0	0
80.23	3.11454	1.20943	-1.55178	0.66746	0.181002	0.556026	1.02273	-0.458487	0.0408365	2.0944	0.490696	0	0	1.06468	-0.427302	0.0715026	2.0944	0.412658	0	0	-1.18287	-0.00329652	0.0254551	1.02472	-0.541349	0.111042	1.25902	1.27599	0	0	1.06974	-0.478669	0.249777	1.35704	0.708633	0	0
80.24	3.06655	1.22784	-1.49539	0.666331	0.181211	0.55764	1.02807	-0.453907	0.0158564	2.0944	0.484967	0	0	1.09747	-0.421918	0.0952647	2.0944	0.404083	0	0	-1.15839	0.0155076	0.0353698	1.01528	-0.5435	0.113133	1.26062	1.26273	0	0	1.05944	-0.48108	0.251017	1.3614	0.708682	0	0
80.25	3.06747	1.23521	-1.49735	0.666161	0.18161	0.562026	1.02993	-0.45115	0.0129662	2.0944	0.479622	0	0	1.09601	-0.420306	0.0884519	2.0944	0.400718	0	0	-1.14781	0.0151047	0.0359213	1.00572	-0.543122	0.105551	1.26144	1.27686	0	0	1.05175	-0.482925	0.252623	1.36433	0.710117	0	0
80.26	3.06716	1.24659	-1.49842	0.666003	0.182291	0.565811	1.03702	-0.448021	0.0110049	2.0944	0.474839	0	0	1.09907	-0.418613	0.0825631	2.0944	0.399442	0	0	-1.13267	0.0147373	0.0364854	0.995906	-0.542771	0.0984221	1.26348	1.29053	0	0	1.04187	-0.484514	0.253164	1.36904	0.710785	0	0
80.27	3.09813	1.28455	-1.54027	0.666047	0.18256	0.565877	1.08804	-0.44448	0.0263369	2.0944	0.471675	0	0	1.12718	-0.413797	0.0633531	2.0944	0.397539	0	0	-1.09049	0.000916934	0.032319	0.984628	-0.542673	0.0915527	1.26667	1.30416	0	0	1.02852	-0.486032	0.252807	1.37497	0.711101	0	0
80.28	3.07112	1.27415	-1.50527	0.665587	0.184041	0.572583	1.05694	-0.442065	0.00994503	2.0944	0.468702	0	0	1.10861	-0.413502	0.0695764	2.0944	0.401887	0	0	-1.09663	0.0130391	0.036385	0.976015	-0.534422	0.0292284	1.26698	1.57064	0	0	1.01922	-0.487747	0.254128	1.3814	0.70134	0	0
80.29	3.09877	1.30759	-1.54573	0.665684	0.183951	0.573039	1.10156	-0.437388	0.021735	2.0944	0.467316	0	0	1.13141	-0.411966	0.0509395	2.0944	0.402462	0	0	-1.05917	-0.000285076	0.0348253	0.965654	-0.541255	0.0640072	1.27507	1.3803	0	0	1.00639	-0.489204	0.252402	1.38691	0.700306	0	0
80.3	3.10552	1.31869	-1.55452	0.665922	0.185545	0.574049	1.1174	-0.433682	0.0219353	2.0944	0.465232	0	0	1.14032	-0.4127	0.0463453	2.0944	0.405309	0	0	-1.03767	-0.00241217	0.0350367	0.952105	-0.54103	0.0527954	1.28206	1.38934	0	0	0.993691	-0.491515	0.251374	1.39281	0.698129	0	0
80.31	3.12405	1.33946	-1.57565	0.664787	0.184784	0.579313	1.1414	-0.420826	0.0274456	2.0944	0.451212	0	0	1.14018	-0.400916	0.0278292	2.08529	0.407139	0	0	-1.01976	-0.0041177	0.0332925	0.945039	-0.542277	0.0449383	1.28939	1.39771	0	0	0.984208	-0.491423	0.249566	1.39917	0.695087	0	0
80.32	3.12379	1.35401	-1.57839	0.66465	0.184281	0.585427	1.13995	-0.413352	0.0193708	2.08872	0.449153	0	0	1.13482	-0.396209	0.0147358	2.06207	0.40798	0	0	-1.00803	-0.00495126	0.0365213	0.937054	-0.538004	0.00194133	1.29653	1.55842	0	0	0.977635	-0.491412	0.250299	1.40481	0.691435	0	0
80.33	3.06492	1.33155	-1.51246	0.664169	0.184125	0.597612	1.07451	-0.40637	-0.0127291	2.05652	0.44922	0	0	1.08813	-0.395872	0.0161763	2.03139	0.412458	0	0	-1.03719	0.0113213	0.0452797	0.934388	-0.538239	-0.00720228	1.30481	1.55637	0	0	0.97618	-0.49137	0.249748	1.4097	0.695375	0	0
80.34	3.04181	1.30678	-1.4726	0.662557	0.184996	0.609206	1.00416	-0.400614	-0.0323669	2.02622	0.457042	0	0	1.03934	-0.383222	0.0167096	2.00224	0.41696	0	0	-1.06505	0.0309684	0.0444633	0.92716	-0.536269	-0.0194386	1.3138	1.55554	0	0	0.971763	-0.491991	0.248967	1.41532	0.696398	0	0
80.35	3.02996	1.31529	-1.46331	0.662241	0.184614	0.615712	0.997355	-0.393916	-0.0412812	2.00368	0.450346	0	0	1.02978	-0.378959	0.00853469	1.97902	0.415326	0	0	-1.059	0.0328295	0.0476022	0.921926	-0.53864	-0.0069533	1.32219	1.45619	0	0	0.964461	-0.490175	0.244684	1.42128	0.697577	0	0
80.36	3.01877	1.3221	-1.45426	0.661971	0.184355	0.622236	0.988538	-0.387714	-0.050026	1.98137	0.443865	0	0	1.01893	-0.374578	0.00150474	1.9562	0.412844	0	0	-1.05422	0.0345239	0.0505777	0.917126	-0.537799	-0.0168121	1.32958	1.46154	0	0	0.95755	-0.487881	0.240996	1.4271	0.693523	0	0
80.37	3.00726	1.32829	-1.44524	0.661814	0.184171	0.628672	0.979133	-0.381602	-0.0587169	1.95923	0.437829	0	0	1.00823	-0.370625	-0.00436372	1.93403	0.409724	0	0	-1.0495	0.035661	0.0536683	0.912475	-0.537037	-0.0265813	1.33594	1.46574	0	0	0.950702	-0.485686	0.23696	1.43285	0.689686	0	0
80.38	2.9964	1.33399	-1.43736	0.661746	0.184058	0.635019	0.969192	-0.375774	-0.0672033	1.93695	0.432796	0	0	0.997539	-0.367202	-0.00965305	1.9124	0.405796	0	0	-1.04473	0.0359504	0.0567682	0.907993	-0.536512	-0.0355198	1.34153	1.46807	0	0	0.943862	-0.483235	0.23185	1.43876	0.688223	0	0
80.39	2.98617	1.33888	-1.43019	0.661735	0.18403	0.641266	0.957958	-0.370805	-0.0762564	1.91433	0.428953	0	0	0.986364	-0.364399	-0.0146942	1.89111	0.401377	0	0	-1.0403	0.0357823	0.0597648	0.903615	-0.536447	-0.0428707	1.34762	1.46934	0	0	0.936993	-0.480309	0.225525	1.44496	0.690451	0	0
80.4	2.97635	1.34197	-1.42293	0.661762	0.184113	0.647551	0.943366	-0.367177	-0.0873316	1.89066	0.427097	0	0	0.973326	-0.362459	-0.0197144	1.86979	0.397452	0	0	-1.03722	0.035874	0.0624586	0.900058	-0.53664	-0.0491641	1.35363	1.47137	0	0	0.929766	-0.47692	0.217333	1.45171	0.69642	0	0
80.41	2.96734	1.34546	-1.41613	0.661749	0.184306	0.653592	0.928513	-0.364737	-0.0990985	1.86633	0.426834	0	0	0.960838	-0.360818	-0.0252567	1.84894	0.394415	0	0	-1.03298	0.0361835	0.0641086	0.897478	-0.536414	-0.0541487	1.35829	1.4742	0	0	0.921509	-0.473808	0.207989	1.45923	0.704527	0	0
